<svg width="64" height="64" viewBox="0 0 64 64" fill="none" xmlns="http://www.w3.org/2000/svg">
  <path d="M58.72 32.68C58.72 30.56 58.53 28.52 58.16 26.56H32V37.3H46.94C46.3 40.76 44.34 43.69 41.4 45.67V52.63H50.37C55.62 47.79 58.72 40.64 58.72 32.68Z" fill="#4285F4"/>
  <path d="M32 59.84C39.5 59.84 45.79 57.35 50.37 52.63L41.4 45.67C38.91 47.34 35.73 48.32 32 48.32C24.77 48.32 18.64 43.44 16.45 36.88H7.17V44.07C11.73 53.13 21.1 59.84 32 59.84Z" fill="#34A853"/>
  <path d="M16.45 36.88C15.89 35.21 15.57 33.42 15.57 31.58C15.57 29.74 15.89 27.95 16.45 26.28V19.09H7.17C5.29 22.84 4.32 27.03 4.32 31.58C4.32 36.13 5.29 40.32 7.17 44.07L16.45 36.88Z" fill="#FBBC05"/>
  <path d="M32 14.84C36.07 14.84 39.72 16.24 42.59 18.99L50.57 11.01C45.77 6.53 39.49 3.84 32 3.84C21.1 3.84 11.73 10.55 7.17 19.61L16.45 26.8C18.64 20.24 24.77 14.84 32 14.84Z" fill="#EA4335"/>
</svg>
